# xmcd
#
# Track frame offsets:
#	182
#	13957
#	26677
#
# Disc length: 571 seconds
#
# Revision: 0
# Processed by: cddbd v1.5.2PL0 Copyright (c) Steve Scherf et al.
# Submitted via: dBpowerAMP V4.0
#
DISCID=1e023903
DTITLE=Various Artist - Bi9g Head Too and The Monsters with John Lee Hooker
DYEAR=1900
DGENRE=Blues
TTITLE0= Boom Boom-(Edit)
TTITLE1= Boom Boom-(short edit)
TTITLE2=Big Head Tood& the Monsters with John Lee Hooker -  Boom Boom_(album
EXTD=Big Head Todd and The Monsters with John Lee Hooker-" Boom Boom"
EXTT0=
EXTT1=
EXTT2=
PLAYORDER=
